<?xml version="1.0" encoding="UTF-8" standalone="no"?>
<svg
   version="1.1"
   width="1920"
   height="1080"
   id="svg51"
   sodipodi:docname="Godot_Comfy_AI_logo.svg"
   inkscape:version="1.3.2 (091e20ef0f, 2023-11-25, custom)"
   xmlns:inkscape="http://www.inkscape.org/namespaces/inkscape"
   xmlns:sodipodi="http://sodipodi.sourceforge.net/DTD/sodipodi-0.dtd"
   xmlns="http://www.w3.org/2000/svg"
   xmlns:svg="http://www.w3.org/2000/svg">
  <defs
     id="defs51" />
  <sodipodi:namedview
     id="namedview51"
     pagecolor="#ffffff"
     bordercolor="#000000"
     borderopacity="0.25"
     inkscape:showpageshadow="2"
     inkscape:pageopacity="0.0"
     inkscape:pagecheckerboard="0"
     inkscape:deskcolor="#d1d1d1"
     showguides="true"
     inkscape:zoom="0.3892311"
     inkscape:cx="888.93205"
     inkscape:cy="706.52114"
     inkscape:window-width="1920"
     inkscape:window-height="1008"
     inkscape:window-x="0"
     inkscape:window-y="0"
     inkscape:window-maximized="1"
     inkscape:current-layer="strokes" />
  <g
     id="ViewLayer_LineSet"
     inkscape:groupmode="lineset"
     inkscape:label="ViewLayer_LineSet">
    <g
       inkscape:groupmode="layer"
       id="strokes"
       inkscape:label="strokes">
      <path
         fill="none"
         stroke-width="3.0"
         stroke-linecap="butt"
         stroke-opacity="1.0"
         stroke="rgb(0, 0, 0)"
         stroke-linejoin="round"
         d=" M 957.777, 127.713 950.884, 120.468 943.991, 113.224 937.098, 105.979 930.205, 98.734 923.312, 91.489 916.419, 84.244 909.526, 77.000 902.633, 69.755 897.028, 63.863 892.093, 59.929 885.705, 56.784 878.837, 54.906 872.534, 54.580 868.764, 54.905 862.173, 55.727 854.484, 57.116 846.869, 58.862 840.486, 60.697 830.988, 63.826 821.490, 66.956 811.993, 70.086 802.495, 73.216 799.778, 74.111 790.628, 78.145 781.478, 82.180 772.328, 86.214 763.404, 90.149 758.366, 93.546 754.409, 98.006 751.680, 103.284 750.325, 109.135 751.033, 119.110 751.742, 129.085 752.451, 139.060 753.159, 149.034 753.868, 159.009 754.576, 168.984 755.285, 178.959 755.784, 185.985 747.255, 191.205 738.725, 196.425 736.864, 197.564 728.999, 203.739 721.133, 209.914 713.268, 216.090 711.424, 217.537 708.758, 219.782 706.088, 222.021 703.423, 224.238 697.218, 220.352 690.992, 216.481 684.736, 212.641 678.443, 208.843 672.106, 205.100 665.717, 201.425 659.268, 197.831 652.752, 194.330 646.161, 190.936 642.916, 189.589 639.572, 188.742 636.182, 188.386 632.799, 188.511 629.473, 189.110 626.258, 190.171 623.204, 191.685 620.365, 193.644 617.792, 196.038 611.432, 203.755 605.071, 211.471 598.710, 219.187 592.349, 226.903 585.988, 234.619 579.627, 242.335 573.266, 250.051 566.412, 258.365 560.960, 266.749 555.508, 275.132 550.056, 283.515 544.604, 291.898 543.804, 293.128 541.484, 298.476 540.529, 304.124 540.935, 309.818 542.700, 315.308 548.278, 323.608 553.855, 331.908 559.433, 340.208 565.011, 348.508 570.588, 356.808 576.166, 365.108 581.744, 373.408 587.321, 381.708 592.899, 390.008 598.477, 398.308 604.054, 406.608 609.632, 414.908 615.210, 423.208 620.787, 431.508 626.365, 439.808 631.942, 448.108 637.520, 456.408 643.098, 464.708 648.675, 473.008 654.253, 481.308 658.206, 487.191 658.271, 497.191 658.337, 507.191 658.402, 517.191 658.467, 527.190 658.532, 537.190 658.597, 547.190 658.662, 557.190 658.727, 567.190 658.793, 577.189 658.858, 587.189 658.923, 597.189 658.988, 607.189 659.053, 617.188 659.118, 627.188 659.184, 637.188 659.249, 647.188 659.314, 657.188 659.379, 667.187 659.444, 677.187 659.509, 687.187 659.574, 697.187 659.602, 701.368 661.839, 711.114 663.667, 719.083 667.334, 728.386 670.223, 735.714 675.184, 744.397 679.088, 751.229 685.166, 759.170 690.082, 765.594 697.089, 772.729 703.025, 778.774 710.784, 785.083 717.736, 790.737 726.093, 796.229 734.035, 801.449 743.044, 805.788 752.054, 810.127 761.064, 814.466 770.073, 818.805 770.735, 819.123 780.253, 822.190 789.771, 825.257 799.289, 828.324 808.808, 831.390 812.333, 832.526 822.128, 834.539 831.923, 836.552 841.719, 838.565 851.514, 840.578 858.165, 841.945 868.101, 843.073 878.037, 844.200 887.973, 845.328 897.909, 846.455 907.537, 847.548 917.537, 847.548 927.537, 847.548 937.537, 847.548 947.537, 847.548 957.537, 847.548 967.537, 847.548 977.537, 847.548 987.537, 847.548 997.537, 847.548 1007.537, 847.548 1012.495, 847.548 1022.432, 846.420 1032.368, 845.293 1042.304, 844.165 1052.240, 843.038 1061.866, 841.945 1071.661, 839.932 1081.457, 837.919 1091.252, 835.906 1101.047, 833.893 1107.695, 832.527 1117.213, 829.460 1126.731, 826.392 1136.249, 823.325 1145.767, 820.258 1149.287, 819.124 1158.296, 814.783 1167.305, 810.443 1176.314, 806.103 1185.323, 801.763 1185.979, 801.447 1194.335, 795.953 1202.273, 790.734 1210.031, 784.424 1216.980, 778.770 1223.985, 771.634 1229.919, 765.590 1235.995, 757.647 1240.909, 751.225 1245.869, 742.542 1249.772, 735.710 1253.438, 726.406 1256.325, 719.079 1258.561, 709.333 1260.389, 701.366 1260.455, 691.366 1260.522, 681.366 1260.588, 671.366 1260.654, 661.367 1260.720, 651.367 1260.787, 641.367 1260.853, 631.367 1260.919, 621.368 1260.986, 611.368 1261.052, 601.368 1261.118, 591.368 1261.184, 581.368 1261.251, 571.369 1261.317, 561.369 1261.383, 551.369 1261.449, 541.369 1261.516, 531.370 1261.582, 521.370 1261.648, 511.370 1261.714, 501.370 1261.781, 491.370 1261.808, 487.191 1267.402, 478.902 1272.995, 470.613 1278.589, 462.323 1284.182, 454.034 1289.776, 445.745 1295.369, 437.455 1300.963, 429.166 1306.556, 420.877 1312.150, 412.587 1317.743, 404.298 1323.337, 396.009 1328.930, 387.719 1334.524, 379.430 1340.117, 371.141 1345.711, 362.852 1351.304, 354.562 1356.898, 346.273 1362.491, 337.984 1368.085, 329.694 1373.678, 321.405 1376.031, 317.919 1378.470, 312.629 1379.554, 307.009 1379.281, 301.311 1377.646, 295.785 1372.013, 287.523 1366.379, 279.261 1360.746, 270.999 1355.112, 262.737 1349.478, 254.475 1343.845, 246.213 1338.211, 237.951 1337.315, 236.636 1330.783, 229.064 1324.251, 221.492 1317.719, 213.920 1311.187, 206.348 1304.656, 198.776 1302.312, 196.060 1299.740, 193.668 1296.903, 191.711 1293.852, 190.197 1290.638, 189.137 1287.315, 188.538 1283.934, 188.412 1280.546, 188.767 1277.204, 189.612 1268.196, 193.954 1267.372, 194.351 1260.857, 197.853 1254.408, 201.450 1245.770, 206.488 1241.681, 208.874 1235.388, 212.675 1226.881, 217.931 1222.904, 220.389 1216.699, 224.276 1214.035, 222.058 1211.368, 219.817 1203.716, 213.378 1203.421, 213.130 1195.505, 207.019 1187.589, 200.908 1183.195, 197.517 1174.667, 192.295 1166.139, 187.073 1164.338, 185.970 1165.091, 175.999 1165.845, 166.027 1166.598, 156.056 1167.352, 146.084 1168.105, 136.113 1168.859, 126.141 1169.612, 116.169 1169.913, 112.184 1169.301, 106.138 1167.241, 100.543 1163.879, 95.643 1159.363, 91.684 1150.246, 87.575 1141.129, 83.466 1132.013, 79.356 1122.896, 75.247 1120.342, 74.096 1110.845, 70.966 1101.348, 67.836 1091.850, 64.705 1082.353, 61.575 1081.865, 61.414 1076.093, 59.729 1069.239, 58.102 1061.974, 56.692 1055.010, 55.637 1049.027, 55.040 1045.366, 54.801 1039.597, 55.059 1033.252, 56.484 1026.952, 58.937 1021.314, 62.179 1016.890, 65.891 1009.979, 73.118 1003.068, 80.346 996.157, 87.574 989.246, 94.801 982.335, 102.029 975.424, 109.257 968.513, 116.484 961.602, 123.712 957.777, 127.713 "
         id="path1"
         style="stroke-width:4.8;stroke-dasharray:none;fill:#ffffff"
         inkscape:export-filename="godot-comfy-ai-logo_2.png"
         inkscape:export-xdpi="300"
         inkscape:export-ydpi="300" />
      <path
         fill="none"
         stroke-width="3"
         stroke-linecap="butt"
         stroke-opacity="1"
         stroke="rgb(0, 0, 0)"
         stroke-linejoin="round"
         d="m 1067.343,706.911 5.687,-0.405 -0.026,0.002 9.974,-0.712 9.975,-0.711 0.298,-0.022 9.975,-0.711 9.975,-0.711 0.298,-0.022 9.975,-0.711 0.149,-0.011 0.358,-5.123 0.696,-9.976 0.019,-0.27 0.696,-9.975 0.019,-0.27 0.696,-9.976 0.019,-0.27 0.696,-9.976 0.019,-0.27 0.804,-3.464 1.781,-2.96 2.58,-2.272 3.199,-1.401 9.943,-1.066 3.433,-0.369 9.954,-0.96 9.954,-0.96 3.293,-0.318 9.954,-0.96 9.953,-0.96 3.294,-0.318 9.953,-0.96 9.954,-0.96 3.293,-0.318 9.954,-0.96 1.646,-0.158 9.954,-0.96 1.647,-0.159 0.928,-3.092 v -6.042 -3.021 l 0.022,-10 0.019,-8.928 v -10 -10 -10 -4.835 -10 -10 -10 -4.835 -10 -7.418 -10 -10 -10 -10 -9.165 l 5.712,-8.208 5.711,-8.208 5.712,-8.209 5.711,-8.208 5.712,-8.209 5.711,-8.208 5.712,-8.209 5.711,-8.208 5.712,-8.209 5.711,-8.208 5.712,-8.208 5.711,-8.209 5.712,-8.208 5.711,-8.209 5.712,-8.208 5.711,-8.209 5.712,-8.208 6.065,-8.716 5.112,-7.973 5.059,-8.084 -5.201,-8.541 -1.648,-2.707 -5.459,-8.379 -1.702,-2.612 -5.697,-8.219 -1.752,-2.526 -5.917,-8.062 -1.796,-2.449 -6.118,-7.91 -1.838,-2.376 -6.3,-7.766 -1.874,-2.31 -6.465,-7.628 -1.904,-2.246 -6.614,-7.501 -1.926,-2.185 -6.747,-7.381 -1.943,-2.127 -8.094,4.148 -8.037,4.261 -7.976,4.37 -7.908,4.473 -7.836,4.569 -7.76,4.659 -7.677,4.743 -7.59,4.821 -7.498,4.894 -3.778,-3.634 -3.869,-3.504 -3.947,-3.394 -4.011,-3.305 -4.062,-3.235 -4.1,-3.185 -4.123,-3.155 -4.133,-3.146 -4.13,-3.157 -4.106,-3.163 -4.202,-3.002 -4.28,-2.871 -4.338,-2.771 -4.378,-2.703 -4.4,-2.666 -4.403,-2.661 -4.388,-2.685 -4.355,-2.741 1.219,-9.59 1.08,-9.569 0.948,-9.565 0.824,-9.573 0.706,-9.595 0.594,-9.632 0.489,-9.681 0.392,-9.745 0.3,-9.824 -9.011,-4.336 -2.244,-1.081 -9.154,-4.026 -2.252,-0.991 -9.279,-3.728 -2.261,-0.909 -9.388,-3.445 -2.273,-0.834 -9.482,-3.176 -2.283,-0.765 -9.564,-2.924 -2.292,-0.701 -9.633,-2.687 -2.299,-0.641 -9.691,-2.467 -2.301,-0.586 -9.74,-2.265 -2.297,-0.534 -6.949,7.191 -6.949,7.191 -6.949,7.191 -6.949,7.192 -6.949,7.191 -6.949,7.191 -6.949,7.191 -6.949,7.191 -6.949,7.191 -6.949,7.191 -6.949,7.191 -4.034,4.174 -6.949,-7.191 -6.949,-7.191 -6.949,-7.191 -6.948,-7.192 -6.95,-7.191 -6.949,-7.191 -6.948,-7.191 -6.95,-7.191 -6.948,-7.191 -6.949,-7.191 -6.949,-7.191 -4.034,-4.174 0.015,-0.021 -9.74,2.266 -2.292,0.533 -9.69,2.468 -2.298,0.585 -9.632,2.687 -2.296,0.641 -9.563,2.924 -2.291,0.7 -9.482,3.177 -2.283,0.764 -9.388,3.445 -2.272,0.834 -9.279,3.729 -2.261,0.909 -9.154,4.026 -2.251,0.991 -9.011,4.337 -2.244,1.08 0.299,9.824 0.391,9.745 0.489,9.682 0.595,9.632 0.706,9.595 0.825,9.573 0.951,9.564 1.082,9.57 1.222,9.588 -4.362,2.742 -4.392,2.686 -4.405,2.66 -4.401,2.666 -4.378,2.703 -4.337,2.772 -4.278,2.871 -4.202,3.001 -4.107,3.163 -4.126,3.157 -4.131,3.146 -4.123,3.155 -4.101,3.186 -4.064,3.235 -4.014,3.304 -3.951,3.395 -3.872,3.504 -3.78,3.634 -7.497,-4.894 -7.589,-4.821 -7.676,-4.744 -7.759,-4.659 -7.835,-4.569 -7.908,-4.472 -7.976,-4.37 -8.038,-4.262 -8.096,-4.147 -6.746,7.382 -1.943,2.127 -6.613,7.501 -1.927,2.185 -6.464,7.629 -1.903,2.246 -6.299,7.766 -1.873,2.309 -6.117,7.911 -1.837,2.376 -5.916,8.062 -1.796,2.448 -5.697,8.218 -1.751,2.526 -5.459,8.379 -1.702,2.612 -5.202,8.541 -1.649,2.707 5.058,8.083 5.111,7.973 5.63,8.264 5.631,8.265 5.63,8.264 5.631,8.264 5.63,8.264 5.631,8.265 5.63,8.264 5.631,8.264 5.63,8.264 5.631,8.264 5.63,8.265 5.631,8.264 5.63,8.264 5.631,8.264 5.63,8.265 5.631,8.264 5.63,8.264 5.631,8.264 1.725,2.533 v 10 10 10 10 10 0.677 10 8.93 10 8.929 10 8.93 10 8.93 10 8.93 7.94 l 99.196,9.738 124.548,22.958 132.8999,-2.93209 3.2881,54.02209 z"
         id="path32"
         style="fill:#000000;stroke:none;stroke-width:4.1;stroke-dasharray:none"
         sodipodi:nodetypes="ccccccccccccccccccccccccccccccccccccccccccccccccccccccccccccccccccccccccccccccccccccccccccccccccccccccccccccccccccccccccccccccccccccccccccccccccccccccccccccccccccccccccccccccccccccccccccccccccccccccccccccccccccccccccccccccccccccccccccccccccccccccccccccccccccccccccccccccccccccccccccccccccccc" />
      <path
         fill="none"
         stroke-width="3.0"
         stroke-linecap="butt"
         stroke-opacity="1.0"
         stroke="rgb(0, 0, 0)"
         stroke-linejoin="round"
         d=" M 1132.332, 468.499 1134.271, 468.187 1143.727, 464.934 1148.709, 463.220 1157.478, 458.413 1162.062, 455.901 1169.891, 449.679 1174.017, 446.399 1180.665, 438.929 1184.261, 434.888 1189.505, 426.373 1192.482, 421.538 1196.130, 412.227 1198.366, 406.519 1200.299, 396.708 1201.483, 390.704 1201.642, 380.705 1201.732, 375.036 1200.145, 365.163 1199.287, 359.829 1196.032, 350.374 1194.318, 345.396 1189.510, 336.628 1186.998, 332.048 1180.775, 324.220 1177.499, 320.099 1170.028, 313.451 1165.991, 309.860 1157.476, 304.617 1152.648, 301.645 1143.337, 297.998 1137.642, 295.766 1127.831, 293.832 1121.819, 292.646 1111.820, 292.483 1106.144, 292.391 1096.271, 293.974 1090.931, 294.829 1081.474, 298.079 1076.492, 299.791 1067.721, 304.595 1063.139, 307.104 1055.308, 313.324 1051.185, 316.598 1044.535, 324.067 1040.943, 328.102 1035.699, 336.616 1032.726, 341.443 1029.078, 350.754 1026.845, 356.452 1024.911, 366.263 1023.725, 372.277 1023.564, 382.276 1023.472, 387.954 1025.057, 397.827 1025.915, 403.168 1029.168, 412.624 1030.882, 417.609 1035.689, 426.378 1038.202, 430.963 1044.247, 438.569 "
         id="path31"
         style="fill:#ffffff;stroke-width:4.1;stroke-dasharray:none" />
      <path
         fill="none"
         stroke-width="3.0"
         stroke-linecap="butt"
         stroke-opacity="1.0"
         stroke="rgb(0, 0, 0)"
         stroke-linejoin="round"
         d=" M 1033.163, 531.001 1031.255, 521.184 1029.348, 511.368 1027.441, 501.551 1025.533, 491.735 1023.626, 481.919 1021.718, 472.102 1019.811, 462.286 1017.904, 452.469 1015.996, 442.653 1014.089, 432.837 1012.182, 423.020 1010.274, 413.204 1008.367, 403.387 1006.459, 393.571 1004.552, 383.755 1002.645, 373.938 1000.737, 364.122 998.830, 354.305 996.923, 344.489 995.015, 334.672 993.108, 324.856 991.200, 315.040 989.293, 305.223 987.386, 295.407 985.478, 285.590 983.571, 275.774 981.664, 265.958 979.756, 256.141 977.849, 246.325 976.496, 239.364 976.083, 237.907 975.412, 236.428 974.509, 234.985 973.408, 233.632 972.152, 232.422 970.789, 231.401 969.371, 230.608 968.011, 230.096 967.964, 230.079 967.954, 230.075 968.010, 230.091 967.964, 230.079 967.954, 230.076 966.477, 229.689 964.720, 229.286 962.804, 228.898 960.804, 228.539 958.797, 228.223 956.860, 227.963 955.067, 227.768 953.487, 227.646 943.504, 227.070 933.521, 226.494 923.537, 225.919 913.554, 225.343 903.570, 224.767 893.587, 224.192 883.603, 223.616 873.620, 223.040 863.637, 222.464 853.653, 221.889 843.670, 221.313 833.686, 220.737 830.695, 220.565 829.835, 220.526 828.890, 220.503 827.875, 220.497 826.803, 220.508 825.691, 220.535 824.555, 220.579 823.412, 220.638 822.278, 220.712 821.169, 220.799 820.102, 220.899 819.092, 221.009 818.155, 221.129 817.303, 221.256 816.053, 221.459 815.235, 221.636 814.399, 221.904 813.556, 222.259 812.719, 222.695 811.901, 223.208 811.112, 223.788 810.366, 224.428 809.671, 225.118 809.039, 225.848 808.479, 226.608 807.999, 227.386 807.606, 228.171 807.306, 228.952 804.197, 238.456 801.088, 247.961 797.979, 257.465 794.870, 266.969 791.760, 276.474 788.651, 285.978 785.542, 295.483 782.433, 304.987 779.324, 314.491 776.215, 323.996 773.106, 333.500 769.996, 343.005 766.887, 352.509 763.778, 362.013 760.669, 371.518 757.560, 381.022 754.451, 390.526 751.342, 400.031 748.232, 409.535 745.123, 419.040 742.014, 428.544 738.905, 438.048 735.796, 447.553 732.687, 457.057 729.578, 466.561 726.468, 476.066 723.359, 485.570 720.250, 495.075 717.141, 504.579 714.032, 514.083 710.923, 523.588 707.814, 533.092 704.704, 542.596 701.595, 552.101 698.486, 561.605 695.377, 571.110 692.268, 580.614 689.159, 590.118 686.050, 599.623 682.940, 609.127 679.831, 618.632 677.667, 625.247 674.558, 634.751 674.144, 636.018 684.059, 637.318 693.974, 638.617 703.889, 639.916 713.805, 641.215 723.720, 642.514 733.635, 643.813 743.550, 645.112 753.466, 646.411 763.381, 647.710 773.296, 649.009 781.255, 650.052 782.849, 650.355 784.650, 650.895 786.484, 651.618 788.169, 652.453 789.542, 653.319 790.427, 663.280 791.311, 673.240 792.196, 683.201 793.081, 693.162 793.952, 702.977 794.796, 704.007 795.792, 704.553 796.842, 704.559 797.844, 704.026 798.656, 703.058 798.700, 703.006 799.652, 693.051 800.604, 683.096 801.556, 673.142 802.508, 663.187 803.460, 653.233 804.412, 643.278 805.364, 633.324 806.316, 623.369 807.230, 613.813 807.812, 608.454 808.548, 602.160 809.366, 595.547 810.185, 589.263 810.926, 583.924 812.357, 574.026 813.787, 564.129 813.947, 563.026 815.348, 558.462 818.085, 554.430 821.888, 551.324 826.386, 549.448 831.138, 548.987 841.121, 549.562 851.105, 550.138 861.088, 550.714 871.072, 551.289 881.055, 551.865 891.039, 552.441 897.254, 552.799 901.227, 553.526 905.114, 555.211 908.651, 557.737 911.595, 560.934 913.747, 564.583 914.960, 568.435 916.625, 578.296 918.290, 588.156 919.955, 598.017 921.620, 607.877 923.286, 617.737 924.951, 627.598 926.616, 637.458 928.281, 647.318 929.956, 657.237 930.250, 658.976 940.249, 659.097 950.248, 659.218 960.247, 659.340 970.247, 659.461 980.246, 659.582 990.245, 659.703 1000.244, 659.824 1010.244, 659.946 1011.760, 659.964 1013.363, 660.116 1015.173, 660.517 1017.014, 661.129 1018.705, 661.890 1020.080, 662.727 1020.623, 663.121 1021.818, 664.175 1022.983, 665.568 1024.005, 667.162 1024.785, 668.803 1025.245, 670.328 1026.788, 680.208 1028.332, 690.089 1029.875, 699.969 1031.419, 709.849 1031.751, 711.977 1041.733, 711.372 1051.715, 710.768 1061.696, 710.163 1064.590, 709.988 1065.978, 709.449 1066.981, 708.862 1067.599, 708.227 1067.343, 706.911 1065.436, 697.095 1063.528, 687.279 1061.621, 677.462 1059.714, 667.646 1057.806, 657.829 1055.899, 648.013 1053.991, 638.197 1052.377, 629.885 "
         id="path44"
         style="fill:#ffffff;stroke:#ffffff;stroke-width:5.1;stroke-dasharray:none" />
      <path
         fill="none"
         stroke-width="3.0"
         stroke-linecap="butt"
         stroke-opacity="1.0"
         stroke="rgb(0, 0, 0)"
         stroke-linejoin="round"
         d=" M 1030.729, 539.736 1028.808, 529.922 1026.887, 520.108 1024.966, 510.295 1023.045, 500.481 1021.124, 490.667 1019.203, 480.853 1017.281, 471.040 1015.360, 461.226 1013.439, 451.412 1011.518, 441.598 1009.597, 431.785 1007.676, 421.971 1005.755, 412.157 1003.833, 402.344 1001.912, 392.530 999.991, 382.716 998.070, 372.902 996.149, 363.089 994.228, 353.275 992.307, 343.461 990.385, 333.647 988.464, 323.834 986.543, 314.020 984.622, 304.206 982.701, 294.393 980.780, 284.579 978.859, 274.765 976.938, 264.951 975.016, 255.138 973.095, 245.324 972.318, 241.352 971.919, 239.944 971.270, 238.515 970.398, 237.121 969.334, 235.814 968.671, 235.175 968.610, 235.116 968.121, 234.645 966.804, 233.658 965.434, 232.893 964.120, 232.398 964.075, 232.381 964.065, 232.377 964.119, 232.393 964.075, 232.381 964.065, 232.378 962.638, 232.004 960.940, 231.615 959.089, 231.240 957.157, 230.893 955.218, 230.588 953.347, 230.337 951.615, 230.148 950.089, 230.031 940.105, 229.455 930.122, 228.879 920.138, 228.304 910.155, 227.728 900.171, 227.152 890.188, 226.576 880.205, 226.001 870.221, 225.425 860.238, 224.849 850.254, 224.274 840.271, 223.698 831.457, 223.190 830.626, 223.152 829.714, 223.130 828.732, 223.124 827.697, 223.135 826.623, 223.161 825.526, 223.203 824.421, 223.260 823.325, 223.331 822.254, 223.416 821.223, 223.512 820.248, 223.619 819.342, 223.735 818.520, 223.857 817.311, 224.053 816.521, 224.224 815.713, 224.483 814.899, 224.826 814.091, 225.248 813.300, 225.743 812.538, 226.303 811.817, 226.921 811.146, 227.588 810.536, 228.294 809.995, 229.028 809.531, 229.779 809.151, 230.538 808.861, 231.292 805.792, 240.810 802.723, 250.327 799.654, 259.845 796.585, 269.362 793.516, 278.879 790.446, 288.397 787.377, 297.914 784.308, 307.432 781.239, 316.949 778.170, 326.466 775.101, 335.984 772.032, 345.501 768.963, 355.018 765.894, 364.536 762.824, 374.053 759.755, 383.571 756.686, 393.088 753.617, 402.605 750.548, 412.123 747.479, 421.640 744.410, 431.157 741.341, 440.675 738.272, 450.192 735.202, 459.710 732.133, 469.227 729.064, 478.744 725.995, 488.262 722.926, 497.779 719.857, 507.297 716.788, 516.814 713.719, 526.331 710.650, 535.849 707.580, 545.366 704.511, 554.883 701.442, 564.401 698.373, 573.918 695.304, 583.436 692.235, 592.953 689.166, 602.470 686.097, 611.988 682.754, 622.352 692.665, 623.683 702.577, 625.013 712.488, 626.343 722.399, 627.674 732.310, 629.004 742.221, 630.335 752.132, 631.665 762.043, 632.995 771.954, 634.326 776.863, 634.985 778.403, 635.278 780.144, 635.800 781.915, 636.498 783.544, 637.305 784.870, 638.141 789.818, 643.911 790.633, 644.907 791.595, 645.434 792.610, 645.440 793.578, 644.925 794.405, 643.939 795.429, 633.992 796.452, 624.045 797.476, 614.097 798.500, 604.150 798.607, 603.111 799.169, 597.934 799.880, 591.853 800.670, 585.464 801.462, 579.394 802.178, 574.235 803.608, 564.338 805.039, 554.441 805.096, 554.046 806.450, 549.636 809.094, 545.741 812.768, 542.740 817.114, 540.928 821.705, 540.482 831.695, 540.927 841.685, 541.371 851.675, 541.816 861.665, 542.261 871.655, 542.705 881.645, 543.150 891.635, 543.595 901.625, 544.040 904.452, 544.165 908.290, 544.868 912.046, 546.495 915.462, 548.936 918.307, 552.024 920.386, 555.549 921.557, 559.271 923.325, 569.114 925.093, 578.956 926.861, 588.799 928.629, 598.641 930.397, 608.484 932.165, 618.326 933.933, 628.169 935.701, 638.011 937.468, 647.854 938.541, 653.827 948.540, 653.983 958.539, 654.140 968.538, 654.296 978.536, 654.453 988.535, 654.609 998.534, 654.766 1008.533, 654.922 1016.177, 655.042 1017.726, 655.189 1019.475, 655.576 1021.253, 656.167 1022.887, 656.902 1023.550, 657.306 1023.552, 657.307 1024.216, 657.711 1024.740, 658.091 1025.894, 659.110 1027.020, 660.456 1028.008, 661.996 1028.761, 663.581 1029.205, 665.055 1031.080, 674.878 1032.955, 684.700 1034.829, 694.523 1036.704, 704.346 1037.599, 709.033 1037.706, 709.593 1047.683, 708.921 1057.661, 708.249 1060.442, 708.062 1061.782, 707.541 1062.236, 707.276 1062.751, 706.974 1063.348, 706.361 1061.427, 696.548 1059.506, 686.734 1057.585, 676.920 1055.664, 667.107 1053.742, 657.293 1051.821, 647.479 1049.900, 637.665 1048.371, 629.854 "
         id="path47"
         style="fill:#000000;stroke:none;stroke-width:4.1;stroke-dasharray:none" />
      <path
         fill="none"
         stroke-width="3.0"
         stroke-linecap="butt"
         stroke-opacity="1.0"
         stroke="rgb(0, 0, 0)"
         stroke-linejoin="round"
         d=" M 793.925, 410.110 793.764, 420.109 793.673, 425.786 795.258, 435.660 796.115, 441.001 799.368, 450.457 801.083, 455.442 805.889, 464.211 808.403, 468.796 814.625, 476.625 817.904, 480.751 825.375, 487.399 829.415, 490.995 837.931, 496.237 842.765, 499.214 852.076, 502.861 857.782, 505.096 867.593, 507.030 873.595, 508.213 883.594, 508.373 889.262, 508.464 899.136, 506.878 904.472, 506.020 913.928, 502.767 918.909, 501.053 927.678, 496.246 932.262, 493.733 940.091, 487.512 944.217, 484.232 950.865, 476.762 954.462, 472.721 959.705, 464.206 962.683, 459.370 966.330, 450.059 968.566, 444.352 970.500, 434.541 971.683, 428.536 971.842, 418.538 971.933, 412.869 970.345, 402.996 969.487, 397.662 966.232, 388.207 964.519, 383.229 959.710, 374.461 957.199, 369.881 950.976, 362.053 947.699, 357.932 940.228, 351.284 936.192, 347.693 927.676, 342.450 922.849, 339.478 913.538, 335.831 907.842, 333.599 898.031, 331.664 892.019, 330.479 882.020, 330.316 876.345, 330.224 866.471, 331.806 861.132, 332.662 851.674, 335.912 846.692, 337.624 837.921, 342.428 833.339, 344.937 825.509, 351.157 821.386, 354.431 814.736, 361.900 811.144, 365.934 805.899, 374.449 802.926, 379.276 799.278, 388.587 797.046, 394.285 795.111, 404.096 793.925, 410.110 "
         id="path41"
         style="fill:#ffffff;stroke-width:4.1;stroke-dasharray:none" />
      <path
         fill="none"
         stroke-width="3.0"
         stroke-linecap="butt"
         stroke-opacity="1.0"
         stroke="rgb(0, 0, 0)"
         stroke-linejoin="round"
         d=" M 1675.899, 920.190 1665.899, 920.129 1655.899, 920.068 1648.930, 920.026 1644.772, 920.402 1643.890, 920.566 1643.260, 920.749 1642.881, 920.951 1642.755, 921.173 1642.755, 931.173 1642.755, 941.173 1642.755, 951.173 1642.755, 961.173 1642.755, 971.173 1642.755, 981.173 1642.755, 991.173 1642.755, 1001.173 1642.755, 1011.173 1642.755, 1018.552 1642.881, 1018.774 1643.260, 1018.976 1643.890, 1019.160 1645.906, 1019.468 1655.906, 1019.541 1665.906, 1019.614 1672.875, 1019.665 1677.033, 1019.235 1677.915, 1019.048 1678.545, 1018.839 1678.923, 1018.607 1679.049, 1018.354 1679.049, 1008.354 1679.049, 998.354 1679.049, 988.354 1679.049, 978.354 1679.049, 968.354 1679.049, 958.354 1679.049, 948.354 1679.049, 938.354 1679.049, 928.354 1679.049, 920.975 1678.924, 920.785 1678.546, 920.611 1677.915, 920.454 1675.899, 920.190 "
         id="path2"
         style="stroke-width:6;stroke-dasharray:none;fill:#ffffff" />
      <path
         fill="none"
         stroke-width="3.0"
         stroke-linecap="butt"
         stroke-opacity="1.0"
         stroke="rgb(0, 0, 0)"
         stroke-linejoin="round"
         d=" M 342.838, 947.600 340.535, 947.154 332.800, 946.559 322.851, 947.564 322.362, 947.613 320.764, 948.016 319.486, 948.522 318.967, 948.815 318.527, 949.134 318.168, 949.479 317.888, 949.850 317.688, 950.247 317.569, 950.671 317.389, 960.669 317.209, 970.668 317.061, 978.917 316.848, 979.669 316.494, 980.349 315.997, 980.958 315.359, 981.495 314.579, 981.961 313.656, 982.355 312.593, 982.677 310.039, 983.107 306.918, 983.250 303.580, 983.010 300.373, 982.291 297.299, 981.093 294.357, 979.415 291.548, 977.259 288.870, 974.623 287.619, 973.129 285.443, 969.807 283.702, 966.039 282.396, 961.824 281.526, 957.163 281.091, 952.057 281.493, 942.065 281.514, 941.551 282.362, 936.968 283.635, 932.869 285.331, 929.255 287.452, 926.126 288.672, 924.743 291.347, 922.319 294.280, 920.336 297.473, 918.793 300.924, 917.691 304.635, 917.030 308.604, 916.810 312.086, 916.997 315.656, 917.559 322.608, 919.598 325.087, 920.655 326.021, 921.168 327.985, 922.495 328.586, 922.785 329.175, 922.991 329.753, 923.115 330.321, 923.156 330.616, 923.129 330.941, 923.046 331.294, 922.909 331.676, 922.716 332.527, 922.165 333.494, 921.394 336.397, 918.501 338.199, 916.094 340.447, 912.094 343.983, 902.740 344.171, 902.244 345.162, 898.112 345.472, 895.548 345.295, 888.846 343.711, 887.378 341.736, 886.014 339.370, 884.755 336.612, 883.601 329.924, 881.607 322.156, 880.119 312.180, 879.434 304.836, 878.929 295.024, 879.464 285.951, 881.067 277.615, 883.739 270.018, 887.479 263.159, 892.289 257.039, 898.167 251.767, 904.899 247.453, 912.270 244.098, 920.281 241.701, 928.930 240.263, 938.218 239.784, 948.146 240.208, 958.137 240.275, 959.693 241.652, 969.598 241.745, 970.270 244.197, 979.878 247.629, 988.517 252.042, 996.185 257.435, 1002.884 263.628, 1008.581 270.437, 1013.241 274.073, 1015.183 281.808, 1018.290 290.160, 1020.362 299.128, 1021.398 309.118, 1020.952 319.108, 1020.507 322.928, 1020.337 332.710, 1018.264 338.419, 1017.054 343.741, 1015.236 345.733, 1014.318 347.278, 1013.396 347.406, 1003.396 347.533, 993.397 347.661, 983.398 347.789, 973.399 347.917, 963.400 348.045, 953.401 348.071, 951.319 348.019, 950.836 347.862, 950.377 347.600, 949.943 347.234, 949.534 346.763, 949.150 346.187, 948.790 344.722, 948.146 342.838, 947.600 "
         id="path3"
         style="stroke-width:6;stroke-dasharray:none;fill:#ffffff" />
      <path
         id="path4"
         style="stroke-width:6;stroke-dasharray:none;fill:#ffffff;stroke:#000000"
         d="M 1546.7227 881.45117 L 1543.7031 881.80469 L 1542.7598 882.01367 L 1542.1934 882.24609 L 1542.0059 882.49805 L 1539.4746 892.17383 L 1536.9453 901.84961 L 1534.418 911.52344 L 1531.8867 921.19727 L 1529.3574 930.87305 L 1526.8281 940.54883 L 1524.2988 950.22266 L 1521.7695 959.89844 L 1519.2402 969.57227 L 1516.7109 979.24609 L 1514.1816 988.92188 L 1511.6504 998.59766 L 1509.1211 1008.2715 L 1506.9004 1016.7676 L 1506.9336 1016.8691 L 1507.0273 1016.9785 L 1507.1855 1017.0957 L 1507.4082 1017.2188 L 1508.041 1017.4863 L 1511.4629 1018.4531 L 1515.0547 1019.0586 L 1525.0527 1019.2559 L 1531.0312 1019.373 L 1535.5918 1018.8613 L 1539.2285 1018.0078 L 1540.6992 1017.4512 L 1541.9395 1016.8105 L 1542.9473 1016.0859 L 1543.7246 1015.2734 L 1544.2695 1014.3789 L 1546.5762 1004.6484 L 1548.8848 994.91797 L 1550.3359 988.80273 L 1560.3359 988.80273 L 1570.3359 988.80273 L 1580.3359 988.80273 L 1581.8691 988.80273 L 1584.3477 998.49023 L 1586.8242 1008.1797 L 1588.4141 1014.3867 L 1588.7559 1015.2734 L 1589.3164 1016.084 L 1590.0996 1016.8164 L 1591.1016 1017.4727 L 1592.3242 1018.0508 L 1593.7676 1018.5527 L 1597.3164 1019.3223 L 1601.7461 1019.7852 L 1611.7363 1019.3789 L 1621.7285 1018.9727 L 1624.3223 1018.8652 L 1628.377 1018.2051 L 1629.6445 1017.8242 L 1630.0879 1017.623 L 1630.4043 1017.4121 L 1630.5938 1017.1934 L 1630.6562 1016.9668 L 1628.1855 1007.2754 L 1625.7129 997.58594 L 1623.2402 987.89648 L 1620.7676 978.20703 L 1618.2969 968.51758 L 1615.8223 958.82812 L 1613.3516 949.13867 L 1610.8789 939.44922 L 1608.4062 929.75977 L 1605.9336 920.07031 L 1603.4609 910.38086 L 1600.9883 900.69141 L 1598.5156 891.00195 L 1596.3477 882.49805 L 1596.1582 882.24609 L 1595.5918 882.01367 L 1594.6484 881.80469 L 1591.6309 881.45312 L 1581.6309 881.45312 L 1571.6309 881.45312 L 1561.6309 881.45117 L 1551.6309 881.45117 L 1546.7227 881.45117 z M 1566.0039 922.56055 L 1567.1934 922.56055 L 1569.3164 932.33203 L 1571.4414 942.10547 L 1573.5645 951.87695 L 1575.6895 961.64844 L 1576.1172 963.61523 L 1566.1172 963.61523 L 1556.1172 963.61523 L 1555.293 963.61523 L 1557.8164 953.93945 L 1560.3418 944.26367 L 1562.8652 934.58789 L 1565.3906 924.91016 L 1566.0039 922.56055 z " />
      <path
         id="path6"
         style="stroke-width:6;stroke-dasharray:none;fill:#ffffff;stroke:#000000"
         d="M 618.32031 918.49219 L 611.79102 919.25195 L 605.74219 920.77148 L 600.17383 923.05273 L 595.08203 926.09375 L 590.4707 929.89453 L 586.36523 934.43555 L 582.92188 939.58008 L 580.16797 945.31055 L 578.10156 951.62305 L 576.72461 958.52148 L 576.03516 966.00195 L 576.25586 976 L 576.29492 977.73438 L 577.32617 984.92578 L 579.04883 991.5293 L 581.45898 997.55078 L 584.55859 1002.9883 L 586.36523 1005.4883 L 590.4707 1010.0273 L 595.08203 1013.8281 L 600.17383 1016.8711 L 605.74219 1019.1504 L 611.79297 1020.6719 L 618.32031 1021.4316 L 625.20703 1021.4316 L 631.73047 1020.6719 L 637.76758 1019.1504 L 643.32031 1016.8711 L 648.38867 1013.8281 L 652.97266 1010.0273 L 657.04688 1005.4883 L 660.46289 1000.3438 L 663.19531 994.61328 L 665.24414 988.30078 L 666.61133 981.40234 L 667.29492 973.92188 L 667.29492 966.00195 L 666.61133 958.52148 L 665.24414 951.62305 L 663.19531 945.31055 L 660.46289 939.58008 L 657.04688 934.43555 L 652.97266 929.89453 L 648.38867 926.09375 L 643.32031 923.05273 L 637.76758 920.77148 L 631.73047 919.25195 L 625.20703 918.49219 L 618.32031 918.49219 z M 621.86328 951.51758 L 623.65234 951.64453 L 625.28711 952.02344 L 626.76562 952.6582 L 628.08789 953.54492 L 629.25586 954.68555 L 630.26758 956.07812 L 631.12305 957.72656 L 631.82227 959.62695 L 632.36719 961.78125 L 632.99023 966.84961 L 632.99023 972.67773 L 632.36719 977.74609 L 631.82227 979.90039 L 631.12305 981.80078 L 630.26758 983.44727 L 629.25586 984.8418 L 628.08789 985.98242 L 626.76562 986.86914 L 625.28711 987.50391 L 623.65234 987.88281 L 621.86328 988.00977 L 620.07227 987.88281 L 618.43945 987.50391 L 616.96094 986.86914 L 615.63867 985.98242 L 614.4707 984.8418 L 613.45898 983.44727 L 612.60352 981.80078 L 611.90234 979.90039 L 611.35742 977.74609 L 610.73438 972.67773 L 610.73438 966.84961 L 611.35742 961.78125 L 611.90234 959.62695 L 612.60352 957.72656 L 613.45898 956.07812 L 614.4707 954.68555 L 615.63867 953.54492 L 616.96094 952.6582 L 618.43945 952.02344 L 620.07227 951.64453 L 621.86328 951.51758 z " />
      <path
         fill="none"
         stroke-width="3.0"
         stroke-linecap="butt"
         stroke-opacity="1.0"
         stroke="rgb(0, 0, 0)"
         stroke-linejoin="round"
         d=" M 1672.875, 910.421 1677.033, 910.045 1677.915, 909.881 1678.545, 909.698 1678.923, 909.495 1679.049, 909.274 1679.049, 899.274 1679.049, 889.274 1679.049, 880.119 1678.924, 879.929 1678.546, 879.756 1677.915, 879.599 1675.899, 879.334 1665.900, 879.212 1655.900, 879.089 1652.963, 879.053 1645.906, 879.604 1643.890, 880.045 1643.260, 880.307 1642.881, 880.596 1642.755, 880.913 1642.755, 890.913 1642.755, 900.913 1642.755, 909.472 1642.881, 909.662 1643.260, 909.835 1643.890, 909.992 1645.906, 910.257 1655.906, 910.318 1665.906, 910.378 1672.875, 910.421 "
         id="path8"
         style="stroke-width:6;stroke-dasharray:none;fill:#ffffff" />
      <path
         fill="none"
         stroke-width="3.0"
         stroke-linecap="butt"
         stroke-opacity="1.0"
         stroke="rgb(0, 0, 0)"
         stroke-linejoin="round"
         d=" M 1093.090, 922.165 1088.605, 920.071 1086.322, 919.339 1084.011, 918.815 1081.672, 918.501 1079.306, 918.397 1078.144, 918.457 1077.036, 918.639 1075.984, 918.942 1074.987, 919.366 1074.045, 919.912 1073.158, 920.578 1072.326, 921.366 1071.549, 922.275 1070.828, 923.305 1069.549, 925.729 1068.266, 929.233 1067.208, 933.420 1066.679, 937.563 1066.795, 943.799 1067.340, 947.220 1067.749, 948.646 1068.249, 949.881 1068.840, 950.926 1069.522, 951.782 1070.294, 952.447 1071.158, 952.922 1072.112, 953.207 1073.158, 953.302 1078.116, 953.302 1078.116, 963.302 1078.116, 973.302 1078.116, 983.302 1078.116, 993.302 1078.116, 1003.302 1078.116, 1013.302 1078.116, 1018.156 1078.234, 1018.504 1078.587, 1018.822 1079.176, 1019.110 1080.000, 1019.368 1083.886, 1019.958 1093.885, 1020.095 1102.492, 1020.213 1109.086, 1019.662 1110.970, 1019.222 1111.559, 1018.960 1111.912, 1018.671 1112.030, 1018.354 1112.030, 1008.354 1112.030, 998.354 1112.030, 988.354 1112.030, 978.354 1112.030, 968.354 1112.030, 958.354 1112.030, 954.889 1115.490, 952.465 1117.038, 951.617 1118.465, 951.010 1119.770, 950.647 1120.378, 950.556 1120.955, 950.526 1122.000, 950.595 1122.955, 950.801 1123.818, 951.145 1124.591, 951.628 1125.273, 952.247 1125.864, 953.005 1126.363, 953.900 1126.772, 954.933 1127.091, 956.104 1127.454, 958.858 1127.462, 968.858 1127.469, 978.858 1127.477, 988.858 1127.485, 998.858 1127.493, 1008.858 1127.500, 1018.156 1127.617, 1018.441 1127.971, 1018.701 1128.560, 1018.936 1129.384, 1019.147 1131.739, 1019.494 1141.739, 1019.484 1151.739, 1019.475 1158.470, 1019.468 1160.354, 1019.160 1160.943, 1018.976 1161.296, 1018.774 1161.414, 1018.552 1161.414, 1008.552 1161.414, 998.552 1161.414, 988.552 1161.414, 978.552 1161.414, 968.552 1161.414, 958.552 1161.414, 954.889 1164.895, 952.465 1166.471, 951.617 1167.937, 951.010 1169.292, 950.647 1169.928, 950.556 1170.537, 950.526 1171.582, 950.595 1172.537, 950.801 1173.400, 951.145 1174.173, 951.628 1174.855, 952.247 1175.446, 953.005 1175.946, 953.900 1176.355, 954.933 1176.673, 956.104 1177.036, 958.858 1177.044, 968.858 1177.052, 978.858 1177.059, 988.858 1177.067, 998.858 1177.075, 1008.858 1177.082, 1018.156 1177.199, 1018.441 1177.553, 1018.701 1178.141, 1018.936 1178.966, 1019.147 1181.321, 1019.494 1191.321, 1019.484 1201.321, 1019.475 1208.052, 1019.468 1209.936, 1019.160 1210.525, 1018.976 1210.878, 1018.774 1210.996, 1018.552 1210.962, 1008.552 1210.927, 998.552 1210.893, 988.552 1210.859, 978.552 1210.825, 968.552 1210.791, 958.553 1210.768, 951.893 1210.087, 946.080 1208.950, 940.820 1207.360, 936.114 1205.314, 931.961 1202.815, 928.363 1199.860, 925.317 1196.452, 922.826 1192.588, 920.888 1188.271, 919.504 1183.498, 918.673 1178.271, 918.397 1173.368, 918.656 1168.708, 919.432 1164.289, 920.727 1160.114, 922.539 1156.180, 924.870 1152.489, 927.718 1149.286, 924.870 1145.757, 922.539 1141.903, 920.727 1137.725, 919.432 1133.221, 918.656 1128.392, 918.397 1123.475, 918.700 1118.707, 919.609 1114.088, 921.124 1109.617, 923.245 1105.295, 925.972 1101.122, 929.305 1100.854, 928.740 1100.513, 928.170 1099.613, 927.013 1098.420, 925.834 1096.935, 924.633 1093.090, 922.165 "
         id="path9"
         style="stroke-width:6;stroke-dasharray:none;fill:#ffffff" />
      <path
         fill="none"
         stroke-width="3.0"
         stroke-linecap="butt"
         stroke-opacity="1.0"
         stroke="rgb(0, 0, 0)"
         stroke-linejoin="round"
         d=" M 1287.327, 924.699 1287.054, 923.553 1286.732, 922.583 1286.360, 921.790 1285.939, 921.173 1285.468, 920.732 1284.947, 920.468 1284.377, 920.380 1274.377, 920.380 1267.916, 920.380 1267.969, 914.568 1268.131, 913.064 1268.399, 911.703 1268.775, 910.485 1269.259, 909.411 1269.849, 908.480 1270.548, 907.692 1271.353, 907.048 1272.267, 906.546 1273.287, 906.188 1274.415, 905.974 1275.651, 905.902 1278.020, 906.018 1280.367, 906.365 1282.692, 906.943 1284.994, 907.753 1289.533, 910.067 1289.937, 909.820 1290.354, 909.477 1291.230, 908.502 1293.147, 905.395 1296.861, 896.110 1297.814, 893.730 1298.563, 890.292 1298.657, 888.945 1298.613, 887.807 1298.480, 886.840 1298.260, 886.044 1298.117, 885.710 1297.951, 885.419 1297.764, 885.170 1297.555, 884.965 1297.323, 884.801 1288.586, 881.486 1279.265, 879.568 1269.284, 878.941 1269.106, 878.929 1264.012, 879.152 1259.311, 879.822 1255.000, 880.937 1251.080, 882.499 1247.551, 884.507 1244.414, 886.962 1243.004, 888.391 1241.717, 890.000 1240.553, 891.790 1238.591, 895.910 1237.121, 900.753 1236.140, 906.317 1235.748, 916.310 1235.588, 920.380 1225.870, 920.380 1225.395, 920.471 1224.961, 920.746 1224.569, 921.204 1224.218, 921.845 1223.908, 922.670 1223.412, 924.868 1223.081, 927.799 1223.081, 937.799 1223.081, 939.339 1223.412, 942.270 1223.908, 944.468 1224.218, 945.292 1224.569, 945.933 1224.961, 946.391 1225.395, 946.666 1225.870, 946.757 1235.588, 946.757 1235.588, 956.757 1235.588, 966.757 1235.588, 976.757 1235.588, 986.757 1235.588, 996.757 1235.588, 1006.757 1235.588, 1017.164 1235.710, 1017.544 1236.076, 1017.891 1236.685, 1018.205 1237.539, 1018.486 1238.636, 1018.734 1245.461, 1019.395 1255.461, 1019.395 1260.819, 1019.395 1267.645, 1018.734 1268.742, 1018.486 1269.595, 1018.205 1270.205, 1017.891 1270.570, 1017.544 1270.692, 1017.164 1270.692, 1007.164 1270.692, 997.164 1270.692, 987.164 1270.692, 977.164 1270.692, 967.164 1270.692, 957.164 1270.692, 946.956 1280.692, 946.956 1283.385, 946.956 1284.114, 946.859 1284.779, 946.570 1285.381, 946.088 1285.920, 945.413 1286.395, 944.546 1286.807, 943.485 1287.155, 942.232 1287.662, 939.147 1287.915, 935.290 1287.724, 927.520 1287.327, 924.699 "
         id="path10"
         style="stroke-width:6;stroke-dasharray:none;fill:#ffffff" />
      <path
         fill="none"
         stroke-width="3.0"
         stroke-linecap="butt"
         stroke-opacity="1.0"
         stroke="rgb(0, 0, 0)"
         stroke-linejoin="round"
         d=" M 1492.696, 959.215 1492.169, 959.015 1491.616, 958.895 1481.616, 958.895 1471.616, 958.895 1461.616, 958.895 1451.616, 958.895 1441.616, 958.895 1431.616, 958.895 1421.616, 958.895 1412.114, 958.895 1411.560, 959.015 1411.034, 959.215 1410.536, 959.495 1410.065, 959.854 1409.621, 960.293 1409.205, 960.813 1408.817, 961.412 1408.123, 962.850 1407.539, 964.607 1406.833, 968.485 1406.745, 970.358 1406.833, 972.232 1407.539, 976.110 1408.123, 977.867 1408.817, 979.305 1409.205, 979.904 1409.621, 980.424 1410.065, 980.863 1410.536, 981.222 1411.034, 981.502 1411.560, 981.702 1412.114, 981.822 1422.114, 981.822 1432.114, 981.822 1442.114, 981.822 1452.114, 981.822 1462.114, 981.822 1472.114, 981.822 1482.114, 981.822 1491.616, 981.822 1492.169, 981.702 1492.696, 981.502 1493.194, 981.222 1493.665, 980.863 1494.109, 980.424 1494.525, 979.904 1494.913, 979.305 1495.607, 977.867 1496.191, 976.110 1496.896, 972.232 1496.979, 969.894 1496.632, 966.568 1496.191, 964.607 1495.607, 962.850 1494.913, 961.412 1494.525, 960.813 1494.109, 960.293 1493.665, 959.854 1493.194, 959.495 1492.696, 959.215 "
         id="path11"
         style="stroke-width:6;stroke-dasharray:none;fill:#ffffff" />
      <path
         id="path12"
         style="stroke-width:6;stroke-dasharray:none;fill:#ffffff;stroke:#000000"
         d="M 1008.4316 918.49219 L 1001.9023 919.25195 L 995.85352 920.77148 L 990.2832 923.05273 L 985.19336 926.09375 L 980.58203 929.89453 L 976.47656 934.43555 L 973.0332 939.58008 L 970.2793 945.31055 L 968.21289 951.62305 L 966.83594 958.52148 L 966.14648 966.00195 L 966.14648 973.92188 L 966.83594 981.40234 L 968.21289 988.30078 L 970.2793 994.61328 L 973.0332 1000.3438 L 976.47656 1005.4883 L 980.58203 1010.0273 L 985.19336 1013.8281 L 990.2832 1016.8711 L 995.85352 1019.1504 L 1001.9023 1020.6719 L 1008.4316 1021.4316 L 1015.3184 1021.4316 L 1021.8398 1020.6719 L 1027.8789 1019.1504 L 1033.4316 1016.8711 L 1038.5 1013.8281 L 1043.084 1010.0273 L 1047.1582 1005.4883 L 1050.5723 1000.3438 L 1053.3066 994.61328 L 1055.3555 988.30078 L 1056.7207 981.40234 L 1057.4043 973.92188 L 1057.4043 966.00195 L 1056.7207 958.52148 L 1055.3555 951.62305 L 1053.3066 945.31055 L 1050.5723 939.58008 L 1047.1582 934.43555 L 1043.084 929.89453 L 1038.5 926.09375 L 1033.4316 923.05273 L 1027.8789 920.77148 L 1021.8418 919.25195 L 1015.3184 918.49219 L 1008.4316 918.49219 z M 1011.9746 951.51758 L 1013.7637 951.64453 L 1015.3984 952.02344 L 1016.877 952.6582 L 1018.1992 953.54492 L 1019.3652 954.68555 L 1020.3789 956.07812 L 1021.2344 957.72656 L 1021.9336 959.62695 L 1022.4785 961.78125 L 1023.1016 966.84961 L 1023.1016 972.67773 L 1022.4785 977.74609 L 1021.9336 979.90039 L 1021.2344 981.80078 L 1020.3789 983.44727 L 1019.3652 984.8418 L 1018.1992 985.98242 L 1016.877 986.86914 L 1015.3984 987.50391 L 1013.7637 987.88281 L 1011.9746 988.00977 L 1010.1836 987.88281 L 1008.5508 987.50391 L 1007.0703 986.86914 L 1005.748 985.98242 L 1004.5801 984.8418 L 1003.5703 983.44727 L 1002.7148 981.80078 L 1002.0137 979.90039 L 1001.4688 977.74609 L 1000.8457 972.67773 L 1000.8457 966.84961 L 1001.4688 961.78125 L 1002.0137 959.62695 L 1002.7148 957.72656 L 1003.5703 956.07812 L 1004.5801 954.68555 L 1005.748 953.54492 L 1007.0703 952.6582 L 1008.5508 952.02344 L 1010.1836 951.64453 L 1011.9746 951.51758 z " />
      <path
         fill="none"
         stroke-width="3.0"
         stroke-linecap="butt"
         stroke-opacity="1.0"
         stroke="rgb(0, 0, 0)"
         stroke-linejoin="round"
         d=" M 952.696, 892.865 952.467, 891.768 952.085, 890.711 951.550, 889.694 950.862, 888.717 950.021, 887.780 949.027, 886.882 947.881, 886.025 945.129, 884.430 941.766, 882.995 934.042, 880.736 925.547, 879.381 916.281, 878.929 907.860, 879.464 899.919, 881.067 892.456, 883.739 885.474, 887.479 878.970, 892.289 872.946, 898.167 870.174, 901.473 865.354, 908.685 861.497, 916.695 858.605, 925.504 856.677, 935.112 855.754, 945.069 855.713, 945.519 855.710, 955.519 855.709, 956.519 856.609, 966.478 856.646, 966.882 858.519, 976.401 861.329, 985.078 865.075, 992.912 869.758, 999.903 872.450, 1003.083 878.328, 1008.718 884.724, 1013.330 891.638, 1016.916 899.070, 1019.478 907.020, 1021.015 915.487, 1021.527 925.475, 1021.038 925.844, 1021.020 935.232, 1019.500 943.650, 1016.966 947.286, 1015.357 950.261, 1013.572 951.500, 1012.613 952.575, 1011.611 953.483, 1010.564 954.227, 1009.473 954.806, 1008.338 955.219, 1007.159 955.467, 1005.936 955.549, 1004.669 955.376, 1002.481 954.605, 998.928 951.354, 990.018 949.365, 985.963 947.266, 982.525 944.774, 979.283 943.972, 978.416 943.286, 977.796 942.987, 977.579 942.716, 977.424 942.474, 977.331 942.261, 977.300 941.556, 977.344 941.270, 977.399 941.027, 977.476 940.923, 977.523 940.829, 977.575 940.746, 977.633 940.255, 978.086 939.280, 978.818 938.123, 979.491 936.785, 980.102 933.562, 981.143 927.263, 982.333 923.979, 982.619 920.604, 982.598 917.117, 982.147 913.845, 981.243 912.289, 980.622 909.339, 979.041 906.604, 977.008 904.083, 974.523 902.927, 973.108 900.916, 969.918 899.308, 966.249 898.101, 962.101 897.297, 957.473 896.895, 952.366 897.263, 942.373 897.284, 941.793 898.067, 937.165 899.240, 933.017 900.805, 929.348 902.760, 926.158 903.885, 924.743 906.356, 922.258 909.075, 920.226 910.527, 919.379 913.618, 918.023 916.956, 917.120 920.543, 916.668 923.588, 916.647 926.122, 916.934 928.943, 917.507 934.279, 919.140 935.887, 919.912 937.237, 920.887 937.626, 921.099 937.997, 921.250 938.353, 921.341 938.692, 921.372 939.298, 921.301 939.928, 921.088 940.582, 920.733 941.259, 920.237 941.959, 919.598 943.430, 917.896 946.653, 912.789 949.817, 906.255 951.860, 900.355 952.444, 897.678 952.773, 894.002 952.696, 892.865 "
         id="path14"
         style="stroke-width:6;stroke-dasharray:none;fill:#ffffff" />
      <path
         id="path15"
         style="stroke-width:6;stroke-dasharray:none;fill:#ffffff;stroke:#000000"
         d="M 535.33984 878.94922 L 525.34766 879.35742 L 523.17188 879.44531 L 520.56055 879.94141 L 519.58008 880.25195 L 518.81836 880.60352 L 518.27539 880.99414 L 517.94922 881.42969 L 517.83984 881.9043 L 517.83984 891.9043 L 517.83984 901.9043 L 517.83984 911.9043 L 517.83984 919.58789 L 510.52344 918.5293 L 506.93164 918.39648 L 500.95312 918.76758 L 495.31836 919.88477 L 490.02344 921.74219 L 485.07227 924.3457 L 480.46094 927.69336 L 476.19141 931.7832 L 474.22656 934.0918 L 470.81055 939.17188 L 468.07812 944.86719 L 466.0293 951.18164 L 464.66211 958.11133 L 463.98047 965.6582 L 464.18164 975.65625 L 464.2207 977.5293 L 464.62695 981.23633 L 465.92578 988.19922 L 467.87695 994.5625 L 470.47656 1000.3242 L 473.72656 1005.4863 L 475.5957 1007.8418 L 479.62891 1012.0234 L 483.92578 1015.4453 L 488.48633 1018.1055 L 493.3125 1020.0078 L 498.4043 1021.1465 L 503.75977 1021.5273 L 509.0918 1021.2344 L 514.11523 1020.3594 L 518.83008 1018.8984 L 523.23828 1016.8555 L 527.33789 1014.2285 L 531.12891 1011.0156 L 533.59961 1014.5137 L 534.4668 1015.4238 L 536.74609 1017.207 L 539.75586 1018.9492 L 543.29297 1020.3809 L 547.1582 1021.2402 L 551.35742 1021.5273 L 552.7793 1021.4668 L 554.13477 1021.2852 L 555.42383 1020.9824 L 556.64648 1020.5566 L 557.80273 1020.0117 L 558.89453 1019.3457 L 559.91797 1018.5586 L 560.87695 1017.6484 L 561.76953 1016.6172 L 562.5957 1015.4668 L 564.05078 1012.8008 L 565.59375 1008.7793 L 566.51758 1005.1758 L 566.75 1003.5312 L 566.82617 1001.9922 L 566.42969 994.95117 L 565.80859 992.22461 L 564.99805 989.99219 L 564.52344 989.0625 L 564.00195 988.25781 L 563.43164 987.57617 L 562.81641 987.01758 L 562.1543 986.58398 L 561.44336 986.27344 L 560.6875 986.08789 L 552.94336 986.02539 L 552.94336 976.02539 L 552.94336 966.02539 L 552.94336 956.02539 L 552.94336 946.02539 L 552.94336 936.02539 L 552.94336 926.02539 L 552.94336 916.02539 L 552.94336 906.02539 L 552.94336 896.02539 L 552.94336 886.02539 L 552.94336 881.50781 L 552.89453 881.3125 L 552.74805 881.125 L 552.50391 880.94336 L 552.16211 880.76953 L 551.18359 880.44141 L 548.05469 879.86914 L 538.08008 879.14648 L 535.33984 878.94922 z M 511.29492 950.12891 L 512.35742 950.18359 L 513.43359 950.34961 L 514.51758 950.625 L 515.61328 951.00977 L 517.83984 952.11133 L 517.83984 962.11133 L 517.83984 972.11133 L 517.83984 982.11133 L 517.83984 985.82812 L 516.64258 986.85742 L 515.42773 987.70117 L 514.19531 988.35742 L 512.94727 988.82422 L 511.68359 989.10547 L 510.40234 989.19922 L 509.76367 989.16992 L 509.13281 989.07617 L 508.51172 988.92188 L 507.90039 988.70312 L 507.30078 988.42578 L 506.70898 988.08398 L 505.55469 987.2168 L 504.43945 986.10156 L 503.36133 984.73633 L 502.39258 983.09375 L 501.59961 981.13477 L 500.74023 977.60742 L 500.27734 973.375 L 500.26562 966.96094 L 500.88281 961.39648 L 501.42383 959.03125 L 502.11719 956.94531 L 502.96484 955.13672 L 503.96875 953.60742 L 505.125 952.35547 L 506.43555 951.38086 L 507.90039 950.68555 L 509.52148 950.26758 L 511.29492 950.12891 z " />
      <path
         fill="none"
         stroke-width="3.0"
         stroke-linecap="butt"
         stroke-opacity="1.0"
         stroke="rgb(0, 0, 0)"
         stroke-linejoin="round"
         d=" M 839.825, 980.424 840.241, 979.904 840.629, 979.305 841.324, 977.867 841.908, 976.110 842.613, 972.232 842.701, 970.358 842.613, 968.485 841.908, 964.607 841.324, 962.850 840.629, 961.412 840.241, 960.813 839.825, 960.293 839.382, 959.854 838.911, 959.495 838.412, 959.215 837.886, 959.015 837.332, 958.895 827.332, 958.895 817.332, 958.895 807.332, 958.895 797.332, 958.895 787.332, 958.895 777.332, 958.895 767.332, 958.895 757.830, 958.895 757.277, 959.015 756.751, 959.215 756.252, 959.495 755.781, 959.854 755.338, 960.293 754.922, 960.813 754.533, 961.412 753.839, 962.850 753.255, 964.607 752.550, 968.485 752.462, 970.358 752.550, 972.232 753.255, 976.110 753.839, 977.867 754.533, 979.305 754.922, 979.904 755.337, 980.424 755.781, 980.863 756.252, 981.222 756.751, 981.502 757.277, 981.702 757.830, 981.822 767.830, 981.822 777.830, 981.822 787.830, 981.822 797.830, 981.822 807.830, 981.822 817.830, 981.822 827.830, 981.822 837.332, 981.822 837.886, 981.702 838.412, 981.502 838.911, 981.222 839.382, 980.863 839.825, 980.424 "
         id="path17"
         style="stroke-width:6;stroke-dasharray:none;fill:#ffffff" />
      <path
         fill="none"
         stroke-width="3.0"
         stroke-linecap="butt"
         stroke-opacity="1.0"
         stroke="rgb(0, 0, 0)"
         stroke-linejoin="round"
         d=" M 1347.241, 1055.433 1349.726, 1055.111 1350.265, 1054.970 1350.660, 1054.813 1350.910, 1054.640 1351.015, 1054.449 1354.329, 1045.015 1357.644, 1035.580 1360.958, 1026.145 1364.272, 1016.710 1367.586, 1007.275 1370.900, 997.840 1374.214, 988.406 1377.529, 978.971 1380.843, 969.536 1384.157, 960.101 1387.471, 950.666 1390.785, 941.231 1394.099, 931.797 1397.622, 921.768 1397.629, 921.356 1397.253, 920.980 1396.494, 920.640 1393.828, 920.067 1383.833, 919.733 1373.839, 919.399 1368.898, 919.234 1363.609, 919.587 1361.857, 919.895 1361.204, 920.082 1360.700, 920.292 1360.345, 920.523 1360.138, 920.777 1357.354, 930.381 1354.569, 939.986 1351.785, 949.590 1349.000, 959.195 1346.454, 967.979 1343.536, 958.414 1340.618, 948.849 1337.699, 939.284 1334.781, 929.719 1332.174, 921.173 1331.953, 920.856 1331.488, 920.567 1330.780, 920.305 1328.631, 919.865 1321.409, 919.314 1311.409, 919.442 1301.460, 919.569 1297.301, 920.160 1296.419, 920.417 1295.789, 920.705 1295.411, 921.023 1295.285, 921.372 1298.785, 930.739 1302.285, 940.107 1305.785, 949.474 1309.285, 958.842 1312.785, 968.209 1316.285, 977.577 1319.785, 986.944 1323.285, 996.312 1326.785, 1005.679 1329.001, 1011.611 1325.173, 1020.849 1321.346, 1030.088 1317.518, 1039.326 1313.691, 1048.565 1311.746, 1053.260 1311.746, 1053.423 1311.878, 1053.582 1312.143, 1053.737 1312.540, 1053.888 1313.729, 1054.177 1317.696, 1054.706 1327.693, 1054.952 1337.690, 1055.198 1347.241, 1055.433 "
         id="path18"
         style="stroke-width:6;stroke-dasharray:none;fill:#ffffff" />
      <path
         fill="none"
         stroke-width="3.0"
         stroke-linecap="butt"
         stroke-opacity="1.0"
         stroke="rgb(0, 0, 0)"
         stroke-linejoin="round"
         d=" M 721.191, 900.040 718.398, 899.511 714.674, 899.159 704.674, 899.193 700.010, 899.208 696.286, 899.649 693.493, 900.310 692.445, 900.723 691.631, 901.192 691.049, 901.715 690.700, 902.293 690.583, 902.927 690.583, 912.927 690.583, 920.380 680.583, 920.380 680.072, 920.380 679.719, 920.416 679.386, 920.523 679.074, 920.702 678.783, 920.953 678.512, 921.275 678.262, 921.669 678.033, 922.135 677.636, 923.280 677.322, 924.713 676.579, 931.707 676.612, 938.444 676.943, 941.865 677.494, 944.526 677.852, 945.572 678.265, 946.427 678.733, 947.092 679.257, 947.567 679.835, 947.852 680.469, 947.947 690.469, 947.947 690.583, 947.947 690.583, 957.947 690.583, 967.947 690.583, 977.947 690.583, 987.947 690.583, 997.947 690.583, 1007.947 690.583, 1018.156 690.721, 1018.446 691.134, 1018.723 691.823, 1018.986 694.027, 1019.471 703.997, 1020.239 710.416, 1020.734 719.671, 1020.469 724.183, 1019.924 725.225, 1019.676 726.034, 1019.395 726.613, 1019.081 726.960, 1018.734 727.076, 1018.354 727.076, 1008.354 727.076, 998.354 727.076, 988.354 727.076, 978.354 727.076, 968.354 727.076, 958.354 727.076, 948.146 737.076, 948.146 741.157, 948.146 741.696, 948.049 742.187, 947.760 742.632, 947.278 743.030, 946.603 743.381, 945.736 743.943, 943.422 744.318, 940.337 744.318, 930.337 744.318, 928.189 743.943, 925.104 743.381, 922.790 743.030, 921.922 742.632, 921.248 742.187, 920.766 741.696, 920.476 741.157, 920.380 731.157, 920.380 724.299, 920.380 724.190, 910.380 724.101, 902.134 723.984, 901.627 723.635, 901.164 723.053, 900.745 722.239, 900.371 721.191, 900.040 "
         id="path19"
         style="stroke-width:6;stroke-dasharray:none;fill:#ffffff" />
      <path
         id="path20"
         style="stroke-width:6;stroke-dasharray:none;fill:#ffffff;stroke:#000000"
         d="M 404.52148 918.49219 L 397.99414 919.25195 L 391.94531 920.77148 L 386.375 923.05273 L 381.28516 926.09375 L 376.67383 929.89453 L 372.56836 934.43555 L 370.75977 936.93555 L 367.66211 942.37109 L 365.25195 948.39453 L 363.5293 954.99805 L 362.36328 964.93164 L 362.23828 966.00195 L 362.23828 973.92188 L 362.92773 981.40234 L 364.30469 988.30078 L 366.36914 994.61328 L 369.125 1000.3438 L 372.56836 1005.4883 L 376.67383 1010.0273 L 381.28516 1013.8281 L 386.375 1016.8711 L 391.94531 1019.1504 L 397.99414 1020.6719 L 404.52148 1021.4316 L 411.4082 1021.4316 L 417.93164 1020.6719 L 423.9707 1019.1504 L 429.52344 1016.8711 L 434.5918 1013.8281 L 439.17578 1010.0273 L 443.24805 1005.4883 L 445.04297 1002.9883 L 448.11719 997.55078 L 450.50781 991.5293 L 452.21484 984.92578 L 453.37109 974.99219 L 453.49609 973.92188 L 453.49609 966.00195 L 452.8125 958.52148 L 451.44727 951.62305 L 449.39648 945.31055 L 446.66406 939.58008 L 443.24805 934.43555 L 439.17578 929.89453 L 434.5918 926.09375 L 429.52344 923.05273 L 423.9707 920.77148 L 417.93164 919.25195 L 411.4082 918.49219 L 404.52148 918.49219 z M 408.06445 951.51758 L 409.85547 951.64453 L 411.48828 952.02344 L 412.96875 952.6582 L 414.29102 953.54492 L 415.45703 954.68555 L 416.4707 956.07812 L 417.32617 957.72656 L 418.02539 959.62695 L 418.57031 961.78125 L 419.19336 966.84961 L 419.19336 972.67773 L 418.57031 977.74609 L 418.02539 979.90039 L 417.32617 981.80078 L 416.4707 983.44727 L 415.45703 984.8418 L 414.29102 985.98242 L 412.96875 986.86914 L 411.48828 987.50391 L 409.85547 987.88281 L 408.06445 988.00977 L 406.27539 987.88281 L 404.64062 987.50391 L 403.16211 986.86914 L 401.83984 985.98242 L 400.67383 984.8418 L 399.66016 983.44727 L 398.80469 981.80078 L 398.10547 979.90039 L 397.56055 977.74609 L 396.9375 972.67773 L 396.9375 966.84961 L 397.56055 961.78125 L 398.10547 959.62695 L 398.80469 957.72656 L 399.66016 956.07812 L 400.67383 954.68555 L 401.83984 953.54492 L 403.16211 952.6582 L 404.64062 952.02344 L 406.27539 951.64453 L 408.06445 951.51758 z " />
      <path
         fill="none"
         stroke-width="3"
         stroke-linecap="butt"
         stroke-opacity="1"
         stroke="rgb(0, 0, 0)"
         stroke-linejoin="round"
         d="m 677.531,665.539 -0.022,-3.378 -0.009,-10 -0.007,-7.242 9.954,0.957 0.482,0.046 9.954,0.957 9.954,0.956 0.964,0.092 9.954,0.957 9.954,0.956 0.964,0.093 9.954,0.956 9.954,0.956 0.938,0.091 9.954,0.956 0.508,0.049 9.955,0.956 0.482,0.046 0.359,5.151 0.359,5.15 0.696,9.976 0.023,0.325 0.696,9.976 0.023,0.325 0.696,9.975 0.023,0.325 0.635,6.967 1.357,3.283 2.271,2.658 2.993,1.841 3.523,0.835 9.975,0.712 2.387,0.17 9.974,0.712 2.387,0.17 9.975,0.712 9.975,0.711 4.774,0.341 9.974,0.712 2.387,0.17 9.975,0.712 9.975,0.712 4.774,0.34 9.974,0.712 2.387,0.17 9.982,0.6 4.305,0.259 3.583,-0.975 3.023,-2.048 2.221,-2.926 1.175,-3.606 1.418,-9.615 0.712,-4.834 -0.004,0.026 1.418,-9.615 1.414,-9.589 0.713,-4.834 0.709,-4.807 h 10.086 10.086 10.087 10.086 10.087 10.086 10.087 10.086 10.087 l 1.417,9.615 1.418,9.641 v -0.026 0 l 1.418,9.615 0.063,0.42551 0.6463,4.38249 0.709,4.807 1.123,6.6 1.602,3.166 2.457,2.471 3.104,1.607 4.349,0.572 9.975,-0.711 2.387,-0.171 9.974,-0.712 2.387,-0.17 9.975,-0.712 9.975,-0.711 4.774,-0.341 9.974,-0.712 2.387,-0.17 9.975,-0.712 2.414,-0.172 -0.027,0.002 9.975,-0.712 9.974,-0.711 4.774,-0.341 9.967,-0.817 4.211,-0.345 3.282,-1.362 2.656,-2.274 1.838,-2.994 0.828,-3.523 0.36,-5.15 0.696,-9.976 0.023,-0.325 0.696,-9.976 0.023,-0.324 0.696,-9.976 0.023,-0.325 0.359,-5.15 0.36,-5.151 9.954,-0.96 0.477,-0.046 9.953,-0.966 9.954,-0.966 0.931,-0.09 0.024,0.01 9.954,-0.96 9.954,-0.96 0.955,-0.092 9.954,-0.96 9.953,-0.96 0.955,-0.092 9.954,-0.96 0.477,-0.046 9.954,-0.961 0.477,-0.046 -0.01,10 -0.01,7.242 -0.023,3.375 -0.053,6.394 -0.07,7.51 -0.017,2.688 -1.438,9.896 -1.438,9.896 -1.438,9.896 -0.214,1.473 -4.306,9.026 -4.306,9.025 -4.305,9.026 -0.145,0.304 -6.608,7.506 -6.609,7.505 -6.608,7.506 -0.987,1.121 -8.125,5.829 -8.125,5.83 -8.125,5.83 -3.403,2.441 -9.019,4.318 -9.02,4.319 -9.019,4.318 -6.901,3.304 -9.522,3.054 -9.522,3.054 -9.523,3.054 -9.522,3.054 -1.269,0.407 -9.796,2.01 -9.795,2.011 -9.796,2.01 -9.796,2.01 -4.789,0.983 -9.935,1.135 -9.935,1.135 -9.936,1.136 -9.935,1.135 -8.061,0.921 -9.992,0.377 -9.993,0.377 -9.993,0.377 -9.993,0.378 -9.993,0.377 -1.267,0.048 -9.993,-0.38 -9.993,-0.38 -9.993,-0.381 -9.992,-0.38 -9.993,-0.38 -0.886,-0.033 -9.936,-1.135 -9.935,-1.135 -9.935,-1.135 -9.936,-1.135 -8.064,-0.922 -9.796,-2.01 -9.796,-2.01 -9.796,-2.01 -9.796,-2.01 -4.794,-0.984 -9.522,-3.053 -9.522,-3.054 -9.523,-3.053 -9.522,-3.054 -1.275,-0.409 -9.02,-4.317 -9.02,-4.318 -9.02,-4.317 -6.906,-3.306 -8.126,-5.829 -8.126,-5.829 -8.125,-5.828 -3.408,-2.444 -6.609,-7.505 -6.609,-7.505 -6.609,-7.504 -0.99,-1.124 -4.307,-9.025 -4.306,-9.025 -4.307,-9.025 -0.146,-0.307 -1.438,-9.896 -1.439,-9.896 -1.438,-9.895 -0.214,-1.474 -0.017,-2.672 -0.067,-7.514 -0.05,-6.403"
         id="path22"
         style="fill:#000000;stroke:none;stroke-width:4.1;stroke-dasharray:none"
         sodipodi:nodetypes="cccccccccccccccccccccccccccccccccccccccccccccccccccccccccccccccccccccccccccccccccccccccccccccccccccccccccccccccccccccccccccccccccccccccccccccccccccccccccccccccccccccccccccccccccccccccccccccccccccccccccccccccccccccccccc" />
      <path
         fill="none"
         stroke-width="3.0"
         stroke-linecap="butt"
         stroke-opacity="1.0"
         stroke="rgb(0, 0, 0)"
         stroke-linejoin="round"
         d=" M 941.215, 416.268 938.566, 406.625 938.052, 404.752 933.762, 395.719 933.015, 394.148 927.241, 385.984 926.297, 384.649 919.224, 377.580 918.090, 376.447 909.923, 370.677 908.586, 369.733 899.552, 365.446 897.978, 364.700 888.334, 362.054 886.457, 361.539 876.497, 360.647 874.215, 360.443 864.255, 361.335 861.979, 361.539 852.336, 364.185 850.462, 364.700 841.427, 368.987 839.855, 369.733 831.688, 375.503 830.352, 376.447 823.279, 383.516 822.145, 384.649 816.370, 392.813 815.426, 394.148 811.135, 403.181 810.389, 404.752 807.740, 414.395 807.226, 416.268 806.332, 426.228 806.128, 428.505 807.021, 438.465 807.226, 440.750 809.873, 450.393 810.389, 452.273 814.678, 461.307 815.426, 462.883 821.199, 471.049 822.145, 472.388 829.216, 479.459 830.352, 480.595 838.518, 486.367 839.855, 487.312 848.889, 491.601 850.462, 492.348 860.105, 494.996 861.979, 495.511 871.939, 496.404 874.215, 496.608 884.175, 495.715 886.457, 495.511 896.100, 492.864 897.978, 492.348 907.012, 488.060 908.586, 487.312 916.753, 481.540 918.090, 480.595 925.161, 473.524 926.297, 472.388 932.069, 464.221 933.015, 462.883 937.304, 453.849 938.052, 452.273 940.699, 442.630 941.215, 440.750 942.107, 430.789 942.312, 428.505 941.419, 418.545 941.215, 416.268 "
         id="path26"
         style="fill:#000000;stroke-width:4.1;stroke-dasharray:none;stroke:#ffffff" />
      <path
         fill="none"
         stroke-width="3.0"
         stroke-linecap="butt"
         stroke-opacity="1.0"
         stroke="rgb(0, 0, 0)"
         stroke-linejoin="round"
         d=" M 1171.233, 394.477 1168.585, 384.834 1168.070, 382.961 1163.780, 373.928 1163.034, 372.357 1157.260, 364.192 1156.316, 362.858 1149.243, 355.789 1148.109, 354.656 1139.941, 348.886 1138.605, 347.942 1129.570, 343.655 1127.996, 342.908 1118.353, 340.263 1116.475, 339.748 1106.515, 338.856 1104.234, 338.651 1094.274, 339.544 1091.998, 339.748 1082.354, 342.394 1080.480, 342.908 1071.446, 347.196 1069.874, 347.942 1061.706, 353.712 1060.370, 354.656 1053.297, 361.725 1052.163, 362.858 1046.389, 371.022 1045.445, 372.357 1041.154, 381.390 1040.408, 382.961 1037.759, 392.603 1037.244, 394.477 1036.351, 404.437 1036.147, 406.714 1037.039, 416.674 1037.244, 418.958 1039.891, 428.602 1040.408, 430.482 1044.247, 438.569 1045.445, 441.092 1051.217, 449.258 1052.163, 450.596 1059.234, 457.667 1060.370, 458.803 1068.536, 464.576 1069.874, 465.521 1078.907, 469.810 1080.480, 470.557 1090.123, 473.205 1091.998, 473.720 1101.958, 474.612 1104.234, 474.816 1114.194, 473.924 1116.475, 473.720 1126.118, 471.073 1127.996, 470.557 1132.332, 468.499 1138.605, 465.521 1146.771, 459.749 1148.109, 458.803 1155.180, 451.732 1156.316, 450.596 1162.088, 442.430 1163.034, 441.092 1167.322, 432.058 1168.070, 430.482 1170.717, 420.838 1171.233, 418.958 1172.126, 408.998 1172.330, 406.714 1171.437, 396.753 1171.233, 394.477 "
         id="path27"
         style="fill:#000000;stroke:#ffffff;stroke-width:4.1;stroke-dasharray:none" />
      <path
         fill="none"
         stroke-width="3.0"
         stroke-linecap="butt"
         stroke-opacity="1.0"
         stroke="rgb(0, 0, 0)"
         stroke-linejoin="round"
         d=" M 1035.749, 626.924 1030.468, 624.217 1025.854, 620.832 1021.978, 616.872 1021.951, 616.833 1021.944, 616.822 1018.912, 612.442 1017.242, 608.773 1017.231, 608.750 1016.728, 607.644 1015.497, 602.584 1015.292, 597.365 1015.551, 595.834 1015.556, 595.803 1016.183, 592.090 1017.504, 587.337 1017.510, 587.315 1020.188, 577.680 1021.747, 572.074 1024.418, 562.438 1027.090, 552.801 1027.291, 552.077 1027.310, 552.058 1029.988, 542.424 1030.732, 539.747 1032.866, 532.068 1033.163, 531.001 1035.662, 522.009 1035.655, 522.035 1038.333, 512.400 1041.011, 502.765 1041.218, 502.019 1043.185, 497.010 1046.081, 492.548 1049.790, 488.692 1054.195, 485.499 1059.179, 483.029 1064.625, 481.339 1070.417, 480.487 1076.437, 480.533 1082.569, 481.534 1088.445, 483.458 1093.728, 486.166 1098.347, 489.554 1102.227, 493.517 1105.298, 497.949 1107.488, 502.749 1108.723, 507.810 1108.932, 513.028 1108.043, 518.299 1105.365, 527.934 1102.687, 537.569 1102.479, 538.315 1099.802, 547.950 1097.125, 557.585 1096.925, 558.306 1096.916, 558.331 1094.238, 567.966 1091.560, 577.600 1091.353, 578.347 1088.675, 587.981 1085.997, 597.616 1085.790, 598.363 1083.112, 607.997 1083.008, 608.370 1081.039, 613.383 1078.140, 617.845 1074.426, 621.701 1070.016, 624.892 1065.026, 627.360 1059.575, 629.048 1053.780, 629.897 1052.377, 629.885 1048.371, 629.854 1047.757, 629.849 1041.624, 628.848 1035.749, 626.924 "
         id="path28"
         style="fill:#000000;stroke-width:4.1;stroke-dasharray:none;stroke:none" />
      <path
         fill="none"
         stroke-width="3.0"
         stroke-linecap="butt"
         stroke-opacity="1.0"
         stroke="rgb(0, 0, 0)"
         stroke-linejoin="round"
         d=" M 937.389, 421.310 934.797, 411.873 930.670, 403.185 925.166, 395.401 918.441, 388.680 910.653, 383.179 901.960, 379.055 892.520, 376.465 882.490, 375.566 872.464, 376.465 863.026, 379.055 854.335, 383.179 846.548, 388.680 839.823, 395.401 834.318, 403.185 830.191, 411.873 827.598, 421.310 826.699, 431.336 827.598, 441.370 830.191, 450.812 834.318, 459.506 839.823, 467.294 846.548, 474.019 854.335, 479.523 863.026, 483.650 872.464, 486.241 882.490, 487.140 892.520, 486.241 901.960, 483.650 910.653, 479.523 918.441, 474.019 925.166, 467.294 930.670, 459.506 934.797, 450.812 937.389, 441.370 938.288, 431.336 937.389, 421.310 "
         id="path30"
         style="fill:#ffffff;stroke-width:4.1;stroke-dasharray:none;stroke:#ffffff" />
      <path
         fill="none"
         stroke-width="3"
         stroke-linecap="butt"
         stroke-opacity="1"
         stroke="#000000"
         stroke-linejoin="round"
         d="m 912.55131,568.01167 c -1.33605,-2.2719 -1.52179,-3.65851 -4.12178,-6.98615 l -3.32043,-3.37234 -4.03764,-1.92123 -4.3309,-0.88425 -4.66161,-0.19779 -55.37755,-2.98844 -4.8531,-0.27567 -4.36927,0.37469 -4.33356,1.28849 -3.24579,2.37922 -2.00603,3.25288 -1.37609,3.37964 -1.29582,3.86241 -16.54374,137.08287 9.953,0.763 8.02,0.572 9.974,0.712 0.149,0.01 9.974,0.712 9.975,0.712 0.297,0.021 9.974,0.711 9.975,0.712 0.297,0.021 9.975,0.712 0.148,0.01 9.975,0.712 0.148,0.01 0.698,-4.728 1.394,-9.456 0.702,-4.754 -0.004,0.026 1.395,-9.456 0.701,-4.754 -0.004,0.026 1.395,-9.456 1.089,-3.438 2.048,-2.839 2.805,-2.066 3.36,-1.116 9.999,-0.105 4.069,-0.043 h 10 z"
         id="path37"
         sodipodi:nodetypes="ccccccccccccccccccccccccccccccccccccccccccccc"
         style="fill:#000000;fill-opacity:1;stroke:none;stroke-width:4.1;stroke-dasharray:none" />
      <path
         fill="none"
         stroke-width="3.0"
         stroke-linecap="butt"
         stroke-opacity="1.0"
         stroke="rgb(0, 0, 0)"
         stroke-linejoin="round"
         d=" M 1036.221, 623.763 1031.491, 621.000 1027.384, 617.600 1023.965, 613.667 1021.294, 609.302 1020.526, 607.362 1020.515, 607.334 1019.436, 604.608 1018.452, 599.687 1018.404, 594.641 1018.515, 594.050 1018.520, 594.025 1019.356, 589.574 1022.158, 579.974 1024.952, 570.405 1027.746, 560.804 1030.526, 551.254 1030.547, 551.237 1032.004, 546.245 1034.478, 537.769 1036.142, 532.068 1038.944, 522.469 1041.738, 512.899 1044.535, 503.315 1046.458, 498.535 1049.212, 494.309 1052.688, 490.690 1056.781, 487.733 1061.380, 485.489 1066.379, 484.011 1071.670, 483.354 1077.145, 483.568 1082.695, 484.709 1087.989, 486.734 1092.722, 489.499 1096.832, 492.901 1100.256, 496.837 1102.931, 501.204 1104.794, 505.900 1105.782, 510.822 1105.833, 515.866 1104.883, 520.931 1102.086, 530.515 1099.288, 540.099 1096.486, 549.699 1093.700, 559.242 1090.902, 568.827 1088.097, 578.437 1085.295, 588.036 1082.502, 597.605 1079.704, 607.189 1077.779, 611.973 1075.023, 616.200 1071.542, 619.817 1067.445, 622.773 1062.841, 625.015 1057.837, 626.490 1052.543, 627.145 1051.839, 627.117 1047.804, 626.957 1047.066, 626.928 1041.514, 625.787 1036.221, 623.763 "
         id="path39"
         style="fill:#ffffff;stroke:none;stroke-width:4.1;stroke-dasharray:none" />
      <path
         fill="none"
         stroke-width="3.0"
         stroke-linecap="butt"
         stroke-opacity="1.0"
         stroke="rgb(0, 0, 0)"
         stroke-linejoin="round"
         d=" M 1041.575, 610.792 1037.757, 608.562 1034.443, 605.819 1031.683, 602.645 1029.528, 599.122 1028.028, 595.333 1027.234, 591.362 1027.196, 587.290 1027.964, 583.200 1030.766, 573.601 1032.480, 567.730 1034.709, 560.063 1036.973, 552.274 1036.995, 552.260 1037.174, 551.647 1039.976, 542.047 1041.511, 536.790 1044.313, 527.190 1046.027, 521.319 1048.285, 513.584 1049.837, 509.726 1052.059, 506.316 1054.865, 503.396 1058.167, 501.009 1061.880, 499.198 1065.914, 498.005 1070.184, 497.474 1074.602, 497.648 1079.082, 498.568 1083.354, 500.202 1087.174, 502.434 1090.491, 505.179 1093.255, 508.356 1095.414, 511.881 1096.917, 515.671 1097.715, 519.643 1097.756, 523.714 1096.989, 527.801 1094.731, 535.536 1092.473, 543.271 1089.671, 552.871 1087.958, 558.742 1085.156, 568.341 1083.442, 574.212 1080.640, 583.811 1078.926, 589.682 1076.668, 597.417 1075.115, 601.277 1072.890, 604.689 1070.080, 607.608 1066.774, 609.994 1063.058, 611.803 1059.020, 612.993 1054.747, 613.522 1050.327, 613.347 1049.115, 613.098 1045.847, 612.426 1044.887, 612.059 1041.575, 610.792 "
         id="path38"
         style="fill:#000000;stroke:#ffffff;stroke-width:4.1;stroke-dasharray:none" />
      <path
         fill="none"
         stroke-width="3.0"
         stroke-linecap="butt"
         stroke-opacity="1.0"
         stroke="rgb(0, 0, 0)"
         stroke-linejoin="round"
         d=" M 879.194, 390.413 872.125, 392.355 865.614, 395.446 859.782, 399.570 854.745, 404.607 850.622, 410.440 847.531, 416.950 845.590, 424.019 844.916, 431.529 845.590, 439.038 847.531, 446.106 850.622, 452.613 854.745, 458.443 859.782, 463.478 865.614, 467.599 872.125, 470.688 879.194, 472.628 886.706, 473.301 894.220, 472.628 901.292, 470.688 907.803, 467.599 913.635, 463.478 918.671, 458.443 922.793, 452.613 925.883, 446.106 927.823, 439.038 928.496, 431.529 927.823, 424.019 925.883, 416.950 922.793, 410.440 918.671, 404.607 913.635, 399.570 907.803, 395.447 901.292, 392.355 894.220, 390.413 886.706, 389.740 879.194, 390.413 "
         id="path40"
         style="fill:#000000;stroke-width:4.1;stroke-dasharray:none" />
      <path
         fill="none"
         stroke-width="3.0"
         stroke-linecap="butt"
         stroke-opacity="1.0"
         stroke="rgb(0, 0, 0)"
         stroke-linejoin="round"
         d=" M 1167.410, 399.518 1164.818, 390.082 1160.691, 381.393 1155.186, 373.610 1148.462, 366.889 1140.674, 361.387 1131.981, 357.263 1122.541, 354.673 1112.510, 353.775 1102.484, 354.673 1093.047, 357.263 1084.356, 361.388 1076.569, 366.889 1069.844, 373.610 1064.339, 381.393 1060.211, 390.082 1057.619, 399.518 1056.720, 409.545 1057.619, 419.578 1060.211, 429.021 1064.339, 437.714 1069.844, 445.502 1076.569, 452.227 1084.356, 457.732 1093.047, 461.858 1102.484, 464.450 1112.510, 465.348 1122.541, 464.450 1131.981, 461.858 1140.674, 457.732 1148.462, 452.227 1155.186, 445.503 1160.691, 437.714 1164.818, 429.021 1167.410, 419.578 1168.309, 409.545 1167.410, 399.518 "
         id="path42"
         style="fill:#ffffff;stroke:#ffffff;stroke-width:4.1;stroke-dasharray:none" />
      <path
         fill="none"
         stroke-width="3.0"
         stroke-linecap="butt"
         stroke-opacity="1.0"
         stroke="rgb(0, 0, 0)"
         stroke-linejoin="round"
         d=" M 1109.231, 368.620 1102.162, 370.562 1095.651, 373.653 1089.819, 377.777 1084.782, 382.814 1080.659, 388.647 1077.568, 395.157 1075.627, 402.226 1074.953, 409.736 1075.627, 417.245 1077.568, 424.313 1080.659, 430.820 1084.782, 436.650 1089.819, 441.685 1095.651, 445.806 1102.162, 448.895 1109.231, 450.835 1116.743, 451.508 1124.257, 450.835 1131.329, 448.895 1137.840, 445.806 1143.672, 441.685 1148.708, 436.650 1152.830, 430.820 1155.920, 424.313 1157.860, 417.245 1158.533, 409.736 1157.860, 402.226 1155.920, 395.157 1152.830, 388.647 1148.708, 382.814 1143.672, 377.777 1137.840, 373.654 1131.329, 370.562 1124.257, 368.620 1116.743, 367.947 1109.231, 368.620 "
         id="path43"
         style="fill:#000000;stroke-width:4.1;stroke-dasharray:none" />
    </g>
  </g>
</svg>
